<svg xmlns="http://www.w3.org/2000/svg" viewBox="0 0 1280 720">
  <defs>
    <radialGradient id="lampLight" cx="50%" cy="30%" r="50%">
      <stop offset="0%" stop-color="#d4a868" stop-opacity="0.15"/>
      <stop offset="25%" stop-color="#b89040" stop-opacity="0.08"/>
      <stop offset="55%" stop-color="#4a3a28" stop-opacity="0.04"/>
      <stop offset="100%" stop-color="#0d0806" stop-opacity="0"/>
    </radialGradient>
    <radialGradient id="lampCone" cx="50%" cy="28%" r="55%">
      <stop offset="0%" stop-color="#f0d080" stop-opacity="0.12"/>
      <stop offset="40%" stop-color="#f0d080" stop-opacity="0.04"/>
      <stop offset="100%" stop-color="#f0d080" stop-opacity="0"/>
    </radialGradient>
    <linearGradient id="wall" x1="0%" y1="0%" x2="0%" y2="100%">
      <stop offset="0%" stop-color="#2a1f14"/>
      <stop offset="100%" stop-color="#1a1008"/>
    </linearGradient>
    <linearGradient id="floor" x1="0%" y1="0%" x2="0%" y2="100%">
      <stop offset="0%" stop-color="#1a1410"/>
      <stop offset="100%" stop-color="#0d0806"/>
    </linearGradient>
    <linearGradient id="bookshelf" x1="0%" y1="0%" x2="0%" y2="100%">
      <stop offset="0%" stop-color="#2a1e14"/>
      <stop offset="100%" stop-color="#1a0e06"/>
    </linearGradient>
    <radialGradient id="fireGlow" cx="50%" cy="50%" r="50%">
      <stop offset="0%" stop-color="#f08030" stop-opacity="0.06"/>
      <stop offset="50%" stop-color="#f06020" stop-opacity="0.02"/>
      <stop offset="100%" stop-color="#f06020" stop-opacity="0"/>
    </radialGradient>
    <linearGradient id="tableTop" x1="0%" y1="0%" x2="0%" y2="100%">
      <stop offset="0%" stop-color="#3a2818"/>
      <stop offset="100%" stop-color="#2a1a0e"/>
    </linearGradient>
  </defs>

  <!-- Wall -->
  <rect width="1280" height="580" fill="url(#wall)"/>
  <!-- Wallpaper pattern -->
  <rect x="0" y="0" width="1280" height="580" fill="none" stroke="#2a1f14" stroke-width="0.3" opacity="0.15"/>
  <rect x="40" y="0" width="40" height="580" fill="none" stroke="#2a1f14" stroke-width="0.3" opacity="0.15"/>
  <rect x="80" y="0" width="40" height="580" fill="none" stroke="#2a1f14" stroke-width="0.3" opacity="0.15"/>

  <!-- Floor -->
  <rect x="0" y="580" width="1280" height="140" fill="url(#floor)"/>
  <!-- Floorboards -->
  <line x1="0" y1="640" x2="1280" y2="640" stroke="#1a1008" stroke-width="1"/>
  <line x1="0" y1="700" x2="1280" y2="700" stroke="#1a1008" stroke-width="1"/>
  <line x1="100" y1="580" x2="100" y2="720" stroke="#0d0806" stroke-width="0.8"/>
  <line x1="250" y1="580" x2="250" y2="720" stroke="#0d0806" stroke-width="0.8"/>
  <line x1="400" y1="580" x2="400" y2="720" stroke="#0d0806" stroke-width="0.8"/>
  <line x1="550" y1="580" x2="550" y2="720" stroke="#0d0806" stroke-width="0.8"/>
  <line x1="700" y1="580" x2="700" y2="720" stroke="#0d0806" stroke-width="0.8"/>
  <line x1="850" y1="580" x2="850" y2="720" stroke="#0d0806" stroke-width="0.8"/>
  <line x1="1000" y1="580" x2="1000" y2="720" stroke="#0d0806" stroke-width="0.8"/>
  <line x1="1150" y1="580" x2="1150" y2="720" stroke="#0d0806" stroke-width="0.8"/>

  <!-- Window -->
  <rect x="850" y="80" width="220" height="280" rx="4" fill="#0a1020"/>
  <rect x="850" y="80" width="220" height="280" rx="4" fill="none" stroke="#2a1e14" stroke-width="4"/>
  <!-- Window cross -->
  <line x1="960" y1="80" x2="960" y2="360" stroke="#2a1e14" stroke-width="3"/>
  <line x1="850" y1="220" x2="1070" y2="220" stroke="#2a1e14" stroke-width="3"/>
  <!-- Moonlight through window -->
  <rect x="855" y="85" width="105" height="135" fill="#2040a0" opacity="0.03"/>
  <rect x="965" y="85" width="105" height="135" fill="#2040a0" opacity="0.03"/>
  <rect x="855" y="225" width="105" height="135" fill="#2040a0" opacity="0.02"/>
  <rect x="965" y="225" width="105" height="135" fill="#2040a0" opacity="0.02"/>
  <!-- Moon through window -->
  <circle cx="1000" cy="150" r="20" fill="#c0c8d8" opacity="0.06"/>

  <!-- Bookshelf left -->
  <rect x="40" y="100" width="180" height="480" fill="url(#bookshelf)"/>
  <rect x="40" y="100" width="180" height="480" fill="none" stroke="#1a0e06" stroke-width="2"/>
  <!-- Shelves -->
  <rect x="40" y="180" width="180" height="4" fill="#1a0e06"/>
  <rect x="40" y="280" width="180" height="4" fill="#1a0e06"/>
  <rect x="40" y="380" width="180" height="4" fill="#1a0e06"/>
  <rect x="40" y="480" width="180" height="4" fill="#1a0e06"/>
  <!-- Books row 1 -->
  <rect x="50" y="110" width="12" height="68" rx="1" fill="#3a1a1a"/>
  <rect x="64" y="115" width="10" height="63" rx="1" fill="#1a2a3a"/>
  <rect x="76" y="108" width="14" height="70" rx="1" fill="#4a3828"/>
  <rect x="92" y="112" width="9" height="66" rx="1" fill="#2a3a2a"/>
  <rect x="103" y="110" width="13" height="68" rx="1" fill="#3a2a3a"/>
  <rect x="118" y="116" width="10" height="62" rx="1" fill="#1a1a1a"/>
  <rect x="130" y="108" width="12" height="70" rx="1" fill="#4a2010"/>
  <rect x="144" y="113" width="11" height="65" rx="1" fill="#2a4060"/>
  <rect x="157" y="110" width="14" height="68" rx="1" fill="#3a3a1a"/>
  <rect x="173" y="115" width="10" height="63" rx="1" fill="#1a1a2a"/>
  <rect x="185" y="108" width="12" height="70" rx="1" fill="#4a3828"/>
  <!-- Books row 2 -->
  <rect x="52" y="192" width="14" height="86" rx="1" fill="#3a2a1a"/>
  <rect x="68" y="195" width="11" height="83" rx="1" fill="#1a3a3a"/>
  <rect x="81" y="190" width="13" height="88" rx="1" fill="#4a1a1a"/>
  <rect x="96" y="196" width="10" height="82" rx="1" fill="#2a2a4a"/>
  <rect x="108" y="192" width="15" height="86" rx="1" fill="#3a4a2a"/>
  <rect x="125" y="190" width="12" height="88" rx="1" fill="#1a2a1a"/>
  <rect x="139" y="195" width="10" height="83" rx="1" fill="#4a3020"/>
  <rect x="151" y="192" width="14" height="86" rx="1" fill="#2a3a4a"/>
  <rect x="167" y="190" width="10" height="88" rx="1" fill="#3a1a2a"/>
  <rect x="179" y="196" width="12" height="82" rx="1" fill="#1a1a1a"/>
  <rect x="193" y="192" width="14" height="86" rx="1" fill="#4a3a18"/>
  <!-- Books row 3 -->
  <rect x="50" y="292" width="16" height="86" rx="1" fill="#2a2a2a"/>
  <rect x="68" y="295" width="12" height="83" rx="1" fill="#3a4a3a"/>
  <rect x="82" y="290" width="14" height="88" rx="1" fill="#1a3a2a"/>
  <rect x="98" y="296" width="11" height="82" rx="1" fill="#4a2a2a"/>
  <rect x="111" y="292" width="13" height="86" rx="1" fill="#2a3a3a"/>
  <rect x="126" y="290" width="15" height="88" rx="1" fill="#3a3a4a"/>
  <rect x="143" y="295" width="10" height="83" rx="1" fill="#1a1a3a"/>
  <rect x="155" y="292" width="12" height="86" rx="1" fill="#4a3828"/>
  <rect x="169" y="290" width="14" height="88" rx="1" fill="#2a1a2a"/>
  <rect x="185" y="296" width="11" height="82" rx="1" fill="#3a2a3a"/>
  <!-- Books row 4 -->
  <rect x="52" y="392" width="13" height="86" rx="1" fill="#4a4a2a"/>
  <rect x="67" y="395" width="11" height="83" rx="1" fill="#1a2a4a"/>
  <rect x="80" y="390" width="14" height="88" rx="1" fill="#3a1a1a"/>
  <rect x="96" y="396" width="12" height="82" rx="1" fill="#2a4a2a"/>
  <rect x="110" y="392" width="10" height="86" rx="1" fill="#1a1a2a"/>
  <rect x="122" y="390" width="15" height="88" rx="1" fill="#4a3a3a"/>
  <rect x="139" y="395" width="13" height="83" rx="1" fill="#3a3a2a"/>
  <rect x="154" y="392" width="11" height="86" rx="1" fill="#2a2a1a"/>
  <rect x="167" y="390" width="14" height="88" rx="1" fill="#1a3a1a"/>
  <rect x="183" y="396" width="12" height="82" rx="1" fill="#4a2a3a"/>
  <!-- Books row 5 -->
  <rect x="50" y="492" width="15" height="86" rx="1" fill="#2a4a3a"/>
  <rect x="67" y="495" width="12" height="83" rx="1" fill="#3a2a4a"/>
  <rect x="81" y="490" width="13" height="88" rx="1" fill="#1a3a4a"/>
  <rect x="96" y="496" width="11" height="82" rx="1" fill="#4a1a3a"/>
  <rect x="109" y="492" width="14" height="86" rx="1" fill="#2a2a3a"/>
  <rect x="125" y="490" width="10" height="88" rx="1" fill="#3a4a1a"/>
  <rect x="137" y="495" width="16" height="83" rx="1" fill="#1a2a2a"/>
  <rect x="155" y="492" width="12" height="86" rx="1" fill="#4a3a28"/>
  <rect x="169" y="490" width="14" height="88" rx="1" fill="#2a3a1a"/>
  <rect x="185" y="496" width="11" height="82" rx="1" fill="#3a1a3a"/>

  <!-- Fireplace -->
  <rect x="200" y="280" width="280" height="300" fill="#1a0e06"/>
  <rect x="200" y="280" width="280" height="300" fill="none" stroke="#2a1a0e" stroke-width="3"/>
  <!-- Mantel -->
  <rect x="185" y="268" width="310" height="18" rx="3" fill="#2a1a0e"/>
  <rect x="185" y="268" width="310" height="18" rx="3" fill="none" stroke="#3a2818" stroke-width="1"/>
  <!-- Fireplace opening -->
  <rect x="240" y="380" width="200" height="200" rx="4" fill="#080406"/>
  <rect x="240" y="380" width="200" height="200" rx="4" fill="none" stroke="#2a1a0e" stroke-width="2"/>
  <!-- Fire glow -->
  <rect x="240" y="380" width="200" height="200" rx="4" fill="url(#fireGlow)"/>
  <!-- Logs -->
  <ellipse cx="320" cy="545" rx="18" ry="6" fill="#1a1008" transform="rotate(-15,320,545)"/>
  <ellipse cx="360" cy="545" rx="18" ry="6" fill="#1a1008" transform="rotate(10,360,545)"/>
  <ellipse cx="340" cy="540" rx="15" ry="5" fill="#2a1a0e"/>
  <!-- Embers -->
  <circle cx="310" cy="530" r="2" fill="#f06020" opacity="0.3"/>
  <circle cx="350" cy="525" r="1.5" fill="#f08030" opacity="0.25"/>
  <circle cx="330" cy="535" r="1.8" fill="#f05010" opacity="0.2"/>
  <!-- Mantel items -->
  <rect x="210" y="252" width="8" height="16" fill="#3a2818"/>
  <circle cx="214" cy="250" r="5" fill="#4a3828"/>
  <rect x="230" y="252" width="6" height="16" fill="#3a2818"/>
  <rect x="235" y="255" width="4" height="4" fill="#f0d080" opacity="0.3"/>
  <circle cx="450" cy="252" r="6" fill="#4a3828"/>
  <rect x="445" y="255" width="10" height="13" fill="#3a2818"/>

  <!-- Table -->
  <rect x="480" y="420" width="320" height="16" rx="3" fill="url(#tableTop)"/>
  <!-- Table legs -->
  <rect x="485" y="436" width="10" height="160" fill="#1a0e06"/>
  <rect x="785" y="436" width="10" height="160" fill="#1a0e06"/>
  <!-- Table lamp -->
  <rect x="618" y="340" width="8" height="80" fill="#4a3a28"/>
  <!-- Lamp base -->
  <ellipse cx="622" cy="420" rx="25" ry="8" fill="#2a1a0e"/>
  <ellipse cx="622" cy="420" rx="25" ry="8" fill="#3a2818"/>
  <!-- Lamp shade -->
  <polygon points="590,280 654,280 666,340 578,340" fill="#c8a060" opacity="0.7"/>
  <polygon points="590,280 654,280 666,340 578,340" fill="none" stroke="#b89050" stroke-width="1.5"/>
  <polygon points="590,280 654,280 666,340 578,340" fill="#f0d080" opacity="0.08"/>
  <ellipse cx="622" cy="280" rx="32" ry="5" fill="#c8a060" opacity="0.6"/>

  <!-- Lamp cone of light -->
  <rect width="1280" height="720" fill="url(#lampCone)"/>
  <rect width="1280" height="720" fill="url(#lampLight)"/>

  <!-- Photos on table -->
  <rect x="520" y="405" width="40" height="15" fill="#c8b898" opacity="0.15" transform="rotate(-5,520,405)"/>
  <rect x="570" y="408" width="35" height="12" fill="#c8b898" opacity="0.12" transform="rotate(3,570,408)"/>
  <rect x="680" y="406" width="38" height="14" fill="#c8b898" opacity="0.13" transform="rotate(-2,680,406)"/>

  <!-- Armchair (right side of table) -->
  <ellipse cx="850" cy="550" rx="90" ry="55" fill="#2a1a10"/>
  <ellipse cx="850" cy="540" rx="75" ry="40" fill="#3a2818"/>
  <!-- Chair back -->
  <rect x="790" y="380" width="120" height="150" rx="15" fill="#2a1a10"/>
  <rect x="795" y="385" width="110" height="140" rx="12" fill="#3a2818"/>
  <!-- Chair arms -->
  <ellipse cx="790" cy="460" rx="20" ry="60" fill="#2a1a10"/>
  <ellipse cx="910" cy="460" rx="20" ry="60" fill="#2a1a10"/>
  <!-- Chair shadow -->
  <ellipse cx="850" cy="595" rx="90" ry="12" fill="#0a0502" opacity="0.5"/>

  <!-- Rug under table -->
  <ellipse cx="640" cy="600" rx="200" ry="40" fill="#3a1a1a" opacity="0.3"/>
  <ellipse cx="640" cy="600" rx="185" ry="35" fill="none" stroke="#4a2a2a" stroke-width="1.5" opacity="0.2"/>
  <ellipse cx="640" cy="600" rx="170" ry="30" fill="none" stroke="#4a2a2a" stroke-width="1" opacity="0.15"/>
  <ellipse cx="640" cy="600" rx="155" ry="25" fill="none" stroke="#4a2a2a" stroke-width="1" opacity="0.1"/>

  <!-- Picture frame on wall -->
  <rect x="540" y="120" width="120" height="90" rx="2" fill="#1a0e06"/>
  <rect x="540" y="120" width="120" height="90" rx="2" fill="none" stroke="#2a1e14" stroke-width="3"/>
  <rect x="546" y="126" width="108" height="78" fill="#2a1f14"/>
  <!-- Picture content — vague family portrait -->
  <circle cx="580" cy="148" r="8" fill="#3a2818"/>
  <circle cx="605" cy="145" r="9" fill="#3a2818"/>
  <circle cx="628" cy="150" r="7" fill="#3a2818"/>
  <rect x="575" y="160" width="12" height="30" fill="#2a1a0e"/>
  <rect x="600" y="158" width="14" height="32" fill="#2a1a0e"/>
  <rect x="623" y="162" width="10" height="28" fill="#2a1a0e"/>
  <rect x="560" y="192" width="80" height="10" fill="#3a2818" opacity="0.5"/>

  <!-- Wall clock -->
  <circle cx="400" cy="150" r="22" fill="#1a0e06"/>
  <circle cx="400" cy="150" r="20" fill="#2a1e14"/>
  <circle cx="400" cy="150" r="18" fill="#c8b080" opacity="0.1"/>
  <line x1="400" y1="150" x2="400" y2="138" stroke="#c8b080" stroke-width="1" opacity="0.15"/>
  <line x1="400" y1="150" x2="410" y2="150" stroke="#c8b080" stroke-width="1" opacity="0.15"/>
  <circle cx="400" cy="150" r="1.5" fill="#c8b080" opacity="0.2"/>

  <!-- Baseboard -->
  <rect x="0" y="576" width="1280" height="6" fill="#1a0e06"/>
</svg>
