<svg xmlns="http://www.w3.org/2000/svg" viewBox="0 0 1280 720">
  <defs>
    <linearGradient id="ceiling" x1="0%" y1="0%" x2="0%" y2="100%">
      <stop offset="0%" stop-color="#3a3024"/>
      <stop offset="100%" stop-color="#2a2218"/>
    </linearGradient>
    <linearGradient id="wall" x1="0%" y1="0%" x2="0%" y2="100%">
      <stop offset="0%" stop-color="#2a2218"/>
      <stop offset="100%" stop-color="#1a140e"/>
    </linearGradient>
    <linearGradient id="floor" x1="0%" y1="0%" x2="0%" y2="100%">
      <stop offset="0%" stop-color="#1a1610"/>
      <stop offset="100%" stop-color="#0d0a06"/>
    </linearGradient>
    <radialGradient id="fluoroLight1" cx="20%" cy="5%" r="50%">
      <stop offset="0%" stop-color="#e8e8d0" stop-opacity="0.1"/>
      <stop offset="30%" stop-color="#d0d0b0" stop-opacity="0.05"/>
      <stop offset="100%" stop-color="#d0d0b0" stop-opacity="0"/>
    </radialGradient>
    <radialGradient id="fluoroLight2" cx="60%" cy="5%" r="50%">
      <stop offset="0%" stop-color="#e8e8d0" stop-opacity="0.1"/>
      <stop offset="30%" stop-color="#d0d0b0" stop-opacity="0.05"/>
      <stop offset="100%" stop-color="#d0d0b0" stop-opacity="0"/>
    </radialGradient>
    <radialGradient id="fluoroLight3" cx="85%" cy="5%" r="50%">
      <stop offset="0%" stop-color="#e8e8d0" stop-opacity="0.08"/>
      <stop offset="30%" stop-color="#d0d0b0" stop-opacity="0.04"/>
      <stop offset="100%" stop-color="#d0d0b0" stop-opacity="0"/>
    </radialGradient>
    <linearGradient id="counter" x1="0%" y1="0%" x2="0%" y2="100%">
      <stop offset="0%" stop-color="#3a2a1a"/>
      <stop offset="100%" stop-color="#2a1a0e"/>
    </linearGradient>
    <linearGradient id="shelfBoard" x1="0%" y1="0%" x2="0%" y2="100%">
      <stop offset="0%" stop-color="#2a1e14"/>
      <stop offset="100%" stop-color="#1a0e06"/>
    </linearGradient>
  </defs>

  <!-- Ceiling -->
  <rect width="1280" height="80" fill="url(#ceiling)"/>

  <!-- Fluorescent light fixtures -->
  <rect x="180" y="10" width="100" height="20" rx="2" fill="#4a4430" opacity="0.8"/>
  <rect x="185" y="12" width="90" height="16" rx="1" fill="#e8e8d0" opacity="0.3"/>
  <rect x="540" y="10" width="100" height="20" rx="2" fill="#4a4430" opacity="0.8"/>
  <rect x="545" y="12" width="90" height="16" rx="1" fill="#e8e8d0" opacity="0.3"/>
  <rect x="900" y="10" width="100" height="20" rx="2" fill="#4a4430" opacity="0.8"/>
  <rect x="905" y="12" width="90" height="16" rx="1" fill="#e8e8d0" opacity="0.3"/>

  <!-- Wall -->
  <rect x="0" y="80" width="1280" height="500" fill="url(#wall)"/>

  <!-- Fluorescent light cones -->
  <rect width="1280" height="720" fill="url(#fluoroLight1)"/>
  <rect width="1280" height="720" fill="url(#fluoroLight2)"/>
  <rect width="1280" height="720" fill="url(#fluoroLight3)"/>

  <!-- Shelving row 1 (far left) -->
  <rect x="20" y="120" width="160" height="460" fill="#1a0e06"/>
  <rect x="20" y="180" width="160" height="3" fill="#2a1e14"/>
  <rect x="20" y="250" width="160" height="3" fill="#2a1e14"/>
  <rect x="20" y="320" width="160" height="3" fill="#2a1e14"/>
  <rect x="20" y="390" width="160" height="3" fill="#2a1e14"/>
  <rect x="20" y="460" width="160" height="3" fill="#2a1e14"/>
  <!-- Products on shelves -->
  <rect x="28" y="132" width="14" height="44" fill="#4a3a28" rx="1"/>
  <rect x="46" y="128" width="12" height="48" fill="#3a4a38" rx="1"/>
  <rect x="62" y="130" width="16" height="46" fill="#2a2a4a" rx="1"/>
  <rect x="82" y="134" width="10" height="42" fill="#4a2830" rx="1"/>
  <rect x="96" y="128" width="14" height="48" fill="#3a3a2a" rx="1"/>
  <rect x="114" y="132" width="12" height="44" fill="#284a3a" rx="1"/>
  <rect x="130" y="130" width="14" height="46" fill="#4a3a28" rx="1"/>
  <rect x="148" y="134" width="12" height="42" fill="#2a3a4a" rx="1"/>
  <!-- Shelving row 2 -->
  <rect x="28" y="262" width="16" height="54" fill="#3a4a28" rx="1"/>
  <rect x="48" y="258" width="12" height="58" fill="#4a2a3a" rx="1"/>
  <rect x="64" y="264" width="14" height="52" fill="#2a3a2a" rx="1"/>
  <rect x="82" y="260" width="10" height="56" fill="#3a3a4a" rx="1"/>

  <!-- Shelving row 2 (center-left) -->
  <rect x="220" y="100" width="180" height="480" fill="#1a0e06"/>
  <rect x="220" y="170" width="180" height="3" fill="#2a1e14"/>
  <rect x="220" y="240" width="180" height="3" fill="#2a1e14"/>
  <rect x="220" y="310" width="180" height="3" fill="#2a1e14"/>
  <rect x="220" y="380" width="180" height="3" fill="#2a1e14"/>
  <rect x="220" y="450" width="180" height="3" fill="#2a1e14"/>
  <!-- Products -->
  <rect x="228" y="108" width="12" height="58" fill="#4a3828" rx="1"/>
  <rect x="244" y="112" width="10" height="54" fill="#283a4a" rx="1"/>
  <rect x="258" y="106" width="14" height="60" fill="#3a284a" rx="1"/>
  <rect x="276" y="110" width="12" height="56" fill="#4a3a3a" rx="1"/>

  <!-- Cash counter -->
  <rect x="640" y="380" width="280" height="30" rx="3" fill="url(#counter)"/>
  <rect x="640" y="380" width="280" height="30" rx="3" fill="none" stroke="#2a1a0e" stroke-width="1"/>
  <!-- Counter front -->
  <rect x="640" y="410" width="280" height="170" fill="#2a1a0e"/>
  <rect x="640" y="410" width="280" height="170" fill="none" stroke="#1a0e06" stroke-width="1"/>
  <!-- Counter panel detail -->
  <rect x="660" y="430" width="240" height="130" rx="2" fill="#1a0e06" opacity="0.5"/>

  <!-- Cash register -->
  <rect x="740" y="350" width="60" height="30" rx="2" fill="#3a3024"/>
  <rect x="740" y="350" width="60" height="30" rx="2" fill="none" stroke="#4a3a28" stroke-width="1"/>
  <rect x="748" y="342" width="44" height="10" rx="1" fill="#2a2218"/>
  <rect x="748" y="342" width="44" height="10" rx="1" fill="none" stroke="#3a3024" stroke-width="0.5"/>
  <!-- Register screen -->
  <rect x="752" y="344" width="20" height="6" rx="1" fill="#203040" opacity="0.6"/>
  <!-- Register keys -->
  <circle cx="752" cy="358" r="2" fill="#4a3a28" opacity="0.6"/>
  <circle cx="760" cy="358" r="2" fill="#4a3a28" opacity="0.6"/>
  <circle cx="768" cy="358" r="2" fill="#4a3a28" opacity="0.6"/>
  <circle cx="776" cy="358" r="2" fill="#4a3a28" opacity="0.6"/>
  <circle cx="784" cy="358" r="2" fill="#4a3a28" opacity="0.6"/>
  <circle cx="792" cy="358" r="2" fill="#4a3a28" opacity="0.6"/>

  <!-- Shelving behind counter -->
  <rect x="660" y="120" width="240" height="230" fill="#1a0e06"/>
  <rect x="660" y="180" width="240" height="3" fill="#2a1e14"/>
  <rect x="660" y="240" width="240" height="3" fill="#2a1e14"/>
  <rect x="660" y="300" width="240" height="3" fill="#2a1e14"/>
  <!-- Products behind counter -->
  <rect x="670" y="128" width="16" height="48" fill="#3a4a28" rx="1"/>
  <rect x="692" y="132" width="12" height="44" fill="#4a2838" rx="1"/>
  <rect x="710" y="126" width="14" height="50" fill="#2a384a" rx="1"/>
  <rect x="730" y="130" width="10" height="46" fill="#3a2840" rx="1"/>
  <rect x="810" y="128" width="14" height="48" fill="#4a3a2a" rx="1"/>
  <rect x="830" y="132" width="12" height="44" fill="#384a2a" rx="1"/>
  <rect x="850" y="126" width="16" height="50" fill="#2a4a3a" rx="1"/>
  <rect x="870" y="130" width="14" height="46" fill="#3a3a28" rx="1"/>

  <!-- Shelving row 3 (right side) -->
  <rect x="960" y="100" width="170" height="480" fill="#1a0e06"/>
  <rect x="960" y="180" width="170" height="3" fill="#2a1e14"/>
  <rect x="960" y="260" width="170" height="3" fill="#2a1e14"/>
  <rect x="960" y="340" width="170" height="3" fill="#2a1e14"/>
  <rect x="960" y="420" width="170" height="3" fill="#2a1e14"/>
  <!-- Products -->
  <rect x="968" y="108" width="18" height="68" fill="#4a3a28" rx="1"/>
  <rect x="990" y="112" width="14" height="64" fill="#283a3a" rx="1"/>
  <rect x="1008" y="106" width="16" height="70" fill="#3a2848" rx="1"/>
  <rect x="1028" y="110" width="12" height="66" fill="#4a3840" rx="1"/>
  <rect x="1044" y="108" width="14" height="68" fill="#2a3a4a" rx="1"/>
  <rect x="1062" y="112" width="16" height="64" fill="#384a28" rx="1"/>
  <rect x="1082" y="106" width="14" height="70" fill="#4a2a2a" rx="1"/>
  <rect x="1100" y="110" width="12" height="66" fill="#3a4a38" rx="1"/>

  <!-- Floor -->
  <rect x="0" y="580" width="1280" height="140" fill="url(#floor)"/>
  <!-- Floor tiles pattern -->
  <line x1="0" y1="580" x2="1280" y2="580" stroke="#0d0a06" stroke-width="1"/>
  <line x1="0" y1="620" x2="1280" y2="620" stroke="#0d0a06" stroke-width="1"/>
  <line x1="0" y1="660" x2="1280" y2="660" stroke="#0d0a06" stroke-width="1"/>
  <line x1="0" y1="700" x2="1280" y2="700" stroke="#0d0a06" stroke-width="1"/>
  <line x1="160" y1="580" x2="160" y2="720" stroke="#0d0a06" stroke-width="0.6"/>
  <line x1="320" y1="580" x2="320" y2="720" stroke="#0d0a06" stroke-width="0.6"/>
  <line x1="480" y1="580" x2="480" y2="720" stroke="#0d0a06" stroke-width="0.6"/>
  <line x1="640" y1="580" x2="640" y2="720" stroke="#0d0a06" stroke-width="0.6"/>
  <line x1="800" y1="580" x2="800" y2="720" stroke="#0d0a06" stroke-width="0.6"/>
  <line x1="960" y1="580" x2="960" y2="720" stroke="#0d0a06" stroke-width="0.6"/>
  <line x1="1120" y1="580" x2="1120" y2="720" stroke="#0d0a06" stroke-width="0.6"/>

  <!-- Baseboard -->
  <rect x="0" y="578" width="1280" height="4" fill="#1a0e06"/>

  <!-- Sign above counter -->
  <rect x="680" y="90" width="200" height="30" rx="3" fill="#2a1a0e" opacity="0.7"/>
  <rect x="680" y="90" width="200" height="30" rx="3" fill="none" stroke="#3a2818" stroke-width="1"/>
  <text x="780" y="110" font-family="serif" font-size="14" fill="#a08050" text-anchor="middle" opacity="0.6">КМІТЛИВИЙ ПОМІЧНИК</text>

  <!-- Price labels on shelves -->
  <rect x="30" y="186" width="30" height="10" rx="1" fill="#c8b080" opacity="0.08"/>
  <rect x="230" y="176" width="30" height="10" rx="1" fill="#c8b080" opacity="0.08"/>
  <rect x="970" y="186" width="30" height="10" rx="1" fill="#c8b080" opacity="0.08"/>

  <!-- Shopping basket on floor -->
  <path d="M520,580 L515,520 L560,520 L555,580 Z" fill="#2a2218" opacity="0.6"/>
  <ellipse cx="535" cy="520" rx="23" ry="5" fill="#3a3024" opacity="0.4"/>
</svg>