<svg xmlns="http://www.w3.org/2000/svg" viewBox="0 0 200 500">
  <rect width="200" height="500" fill="transparent"/>
  <!-- Розпатлане волосся -->
  <ellipse cx="100" cy="62" rx="38" ry="42" fill="#2a1a10"/>
  <ellipse cx="85" cy="48" rx="14" ry="8" fill="#3a2820"/>
  <ellipse cx="112" cy="50" rx="12" ry="7" fill="#3a2820"/>
  <ellipse cx="96" cy="40" rx="8" ry="5" fill="#3a2820"/>
  <!-- Обличчя -->
  <ellipse cx="100" cy="78" rx="32" ry="36" fill="#c8b098"/>
  <!-- Очі -->
  <ellipse cx="88" cy="72" rx="4" ry="5" fill="#2a1a10"/>
  <ellipse cx="112" cy="72" rx="4" ry="5" fill="#2a1a10"/>
  <circle cx="88" cy="72" r="1.5" fill="#c8b098"/>
  <circle cx="112" cy="72" r="1.5" fill="#c8b098"/>
  <!-- Брови -->
  <line x1="82" y1="64" x2="94" y2="62" stroke="#3a2820" stroke-width="1.2"/>
  <line x1="118" y1="64" x2="106" y2="62" stroke="#3a2820" stroke-width="1.2"/>
  <!-- Ніс -->
  <ellipse cx="100" cy="82" rx="2" ry="3" fill="#b89880"/>
  <!-- Рот -->
  <line x1="92" y1="94" x2="108" y2="94" stroke="#8a6050" stroke-width="1.2"/>
  <!-- Шия -->
  <rect x="90" y="112" width="20" height="16" fill="#c8b098"/>
  <!-- Сорочка -->
  <rect x="72" y="126" width="56" height="20" rx="3" fill="#2a3a4a"/>
  <rect x="72" y="146" width="56" height="130" fill="#2a3a4a"/>
  <!-- Комірець -->
  <polygon points="92,126 100,140 108,126" fill="#e0d8cc"/>
  <!-- Ремінь -->
  <rect x="72" y="260" width="56" height="6" fill="#1a1a2e"/>
  <!-- Штани -->
  <rect x="74" y="266" width="22" height="120" rx="3" fill="#1a1a2e"/>
  <rect x="104" y="266" width="22" height="120" rx="3" fill="#1a1a2e"/>
  <!-- Черевики -->
  <rect x="72" y="386" width="26" height="14" rx="4" fill="#1a0a06"/>
  <rect x="102" y="386" width="26" height="14" rx="4" fill="#1a0a06"/>
  <!-- Руки -->
  <rect x="50" y="146" width="22" height="100" rx="8" fill="#c8b098"/>
  <rect x="128" y="146" width="22" height="100" rx="8" fill="#c8b098"/>
  <!-- Рукава сорочки -->
  <rect x="50" y="146" width="22" height="14" fill="#2a3a4a"/>
  <rect x="128" y="146" width="22" height="14" fill="#2a3a4a"/>
  <!-- Кисті рук -->
  <circle cx="61" cy="248" r="8" fill="#c8b098"/>
  <circle cx="139" cy="248" r="8" fill="#c8b098"/>
</svg>
