<svg xmlns="http://www.w3.org/2000/svg" viewBox="0 0 200 500">
  <rect width="200" height="500" fill="transparent"/>
  <!-- Обличчя -->
  <ellipse cx="100" cy="80" rx="30" ry="36" fill="#d4b8a0"/>
  <!-- Волосся (колірний спліт по контуру верхньої частини голови) -->
  <path d="M 75.6,59 A 30,36 0 0,1 124.4,59 Z" fill="#4a2a1a"/>
  <!-- Очі -->
  <ellipse cx="88" cy="74" rx="5" ry="4.5" fill="#f0e8e0"/>
  <ellipse cx="88" cy="74" rx="3.5" ry="3.5" fill="#5a6a5a"/>
  <circle cx="88" cy="74" r="2" fill="#2a3a2a"/>
  <circle cx="86.5" cy="72.5" r="1" fill="#fff"/>
  <ellipse cx="112" cy="74" rx="5" ry="4.5" fill="#f0e8e0"/>
  <ellipse cx="112" cy="74" rx="3.5" ry="3.5" fill="#5a6a5a"/>
  <circle cx="112" cy="74" r="2" fill="#2a3a2a"/>
  <circle cx="110.5" cy="72.5" r="1" fill="#fff"/>
  <!-- Тіні під очима (втома) -->
  <path d="M80,80 Q88,82 94,79" fill="none" stroke="#b89880" stroke-width="0.5"/>
  <path d="M106,79 Q112,82 120,80" fill="none" stroke="#b89880" stroke-width="0.5"/>
  <!-- Брови -->
  <path d="M78,66 Q85,64 92,66" fill="none" stroke="#5a3a2a" stroke-width="1.2" stroke-linecap="round"/>
  <path d="M108,66 Q115,64 122,66" fill="none" stroke="#5a3a2a" stroke-width="1.2" stroke-linecap="round"/>
  <!-- Ніс -->
  <ellipse cx="100" cy="84" rx="2" ry="4" fill="#c8a890"/>
  <ellipse cx="100" cy="88" rx="2" ry="1.5" fill="#b89880"/>
  <!-- Рот -->
  <path d="M92,97 Q96,100 100,98 Q104,100 108,97" fill="none" stroke="#8a6050" stroke-width="0.8" stroke-linecap="round"/>
  <!-- Шия -->
  <rect x="90" y="114" width="20" height="14" rx="2" fill="#d4b8a0"/>
  <!-- Уніформа -->
  <rect x="66" y="126" width="68" height="148" rx="3" fill="#3a6a8a"/>
  <polygon points="88,126 100,140 112,126" fill="#5a8aaa"/>
  <polygon points="88,126 100,140 94,126" fill="#4a7a9a"/>
  <!-- Фартух -->
  <rect x="80" y="145" width="40" height="110" rx="2" fill="#4a7a9a" opacity="0.6"/>
  <rect x="78" y="145" width="44" height="4" rx="1" fill="#5a8aaa"/>
  <!-- Кишеня фартуха -->
  <rect x="86" y="170" width="28" height="20" rx="2" fill="#4a7a9a" stroke="#5a8aaa" stroke-width="0.5"/>
  <rect x="88" y="176" width="10" height="8" rx="1" fill="#6a9aba"/>
  <rect x="102" y="176" width="10" height="8" rx="1" fill="#6a9aba"/>
  <!-- Бейджик -->
  <rect x="90" y="148" width="20" height="12" rx="2" fill="#f0e8e0"/>
  <text x="100" y="156" font-family="sans-serif" font-size="4" fill="#3a6a8a" text-anchor="middle">ЛІНДА</text>
  <!-- Ремінь -->
  <rect x="66" y="274" width="68" height="6" fill="#1a1a2e"/>
  <rect x="94" y="273" width="12" height="8" rx="1" fill="#c8a040"/>
  <!-- Штани -->
  <rect x="70" y="280" width="24" height="108" rx="2" fill="#2a4a6a"/>
  <rect x="106" y="280" width="24" height="108" rx="2" fill="#2a4a6a"/>
  <line x1="82" y1="280" x2="82" y2="388" stroke="#1a3a5a" stroke-width="0.3"/>
  <line x1="118" y1="280" x2="118" y2="388" stroke="#1a3a5a" stroke-width="0.3"/>
  <!-- Туфлі -->
  <rect x="72" y="388" width="24" height="14" rx="4" fill="#1a1a2e"/>
  <rect x="104" y="388" width="24" height="14" rx="4" fill="#1a1a2e"/>
  <rect x="72" y="398" width="24" height="4" rx="2" fill="#0e0e1e"/>
  <rect x="104" y="398" width="24" height="4" rx="2" fill="#0e0e1e"/>
  <!-- Руки -->
  <rect x="48" y="148" width="20" height="104" rx="8" fill="#d4b8a0"/>
  <rect x="132" y="148" width="20" height="104" rx="8" fill="#d4b8a0"/>
  <!-- Рукава -->
  <rect x="46" y="148" width="22" height="14" rx="3" fill="#3a6a8a"/>
  <rect x="132" y="148" width="22" height="14" rx="3" fill="#3a6a8a"/>
  <!-- Кисті -->
  <circle cx="58" cy="254" r="8" fill="#d4b8a0"/>
  <circle cx="142" cy="254" r="8" fill="#d4b8a0"/>
  <path d="M52,251 Q49,246 51,242" fill="none" stroke="#d4b8a0" stroke-width="3" stroke-linecap="round"/>
  <path d="M56,250 Q55,245 57,241" fill="none" stroke="#d4b8a0" stroke-width="3" stroke-linecap="round"/>
  <path d="M136,251 Q139,246 137,242" fill="none" stroke="#d4b8a0" stroke-width="3" stroke-linecap="round"/>
  <path d="M140,250 Q141,245 139,241" fill="none" stroke="#d4b8a0" stroke-width="3" stroke-linecap="round"/>
</svg>