<svg xmlns="http://www.w3.org/2000/svg" viewBox="0 0 200 500">
  <rect width="200" height="500" fill="transparent"/>
  <!-- Обличчя -->
  <ellipse cx="100" cy="78" rx="30" ry="36" fill="#c8a890"/>
  <!-- Волосся (колірний спліт по контуру верхньої частини голови) -->
  <path d="M 77.6,54 A 30,36 0 0,1 122.4,54 Z" fill="#3a2a1a"/>
  <!-- Окуляри -->
  <circle cx="86" cy="72" r="11" fill="none" stroke="#4a3a2a" stroke-width="1.5"/>
  <circle cx="114" cy="72" r="11" fill="none" stroke="#4a3a2a" stroke-width="1.5"/>
  <line x1="97" y1="72" x2="103" y2="72" stroke="#4a3a2a" stroke-width="1.2"/>
  <line x1="75" y1="68" x2="66" y2="62" stroke="#4a3a2a" stroke-width="1"/>
  <line x1="125" y1="68" x2="134" y2="62" stroke="#4a3a2a" stroke-width="1"/>
  <!-- Очі -->
  <ellipse cx="86" cy="72" rx="3" ry="3" fill="#3a5a5a"/>
  <ellipse cx="114" cy="72" rx="3" ry="3" fill="#3a5a5a"/>
  <circle cx="86" cy="72" r="1.2" fill="#1a3a3a"/>
  <circle cx="114" cy="72" r="1.2" fill="#1a3a3a"/>
  <circle cx="84.5" cy="70.5" r="0.8" fill="#fff" opacity="0.6"/>
  <circle cx="112.5" cy="70.5" r="0.8" fill="#fff" opacity="0.6"/>
  <!-- Брови (суворі) -->
  <line x1="76" y1="60" x2="96" y2="58" stroke="#3a2a1a" stroke-width="1.8" stroke-linecap="round"/>
  <line x1="104" y1="58" x2="124" y2="60" stroke="#3a2a1a" stroke-width="1.8" stroke-linecap="round"/>
  <!-- Ніс -->
  <path d="M99,78 Q97,86 100,88 Q103,86 101,78" fill="none" stroke="#b08870" stroke-width="0.8" stroke-linecap="round"/>
  <ellipse cx="100" cy="88" rx="2" ry="1.5" fill="#b89880"/>
  <!-- Рот (суворо стиснутий) -->
  <line x1="90" y1="98" x2="110" y2="98" stroke="#7a5a4a" stroke-width="1.2" stroke-linecap="round"/>
  <line x1="91" y1="97.5" x2="109" y2="97.5" stroke="#8a6a5a" stroke-width="0.5"/>
  <!-- Шия -->
  <rect x="90" y="112" width="20" height="16" rx="2" fill="#c8a890"/>
  <path d="M92,112 Q100,124 108,112" fill="none" stroke="#b08870" stroke-width="0.5"/>
  <!-- Уніформа (блакитна футболка) -->
  <rect x="66" y="126" width="68" height="148" rx="3" fill="#3a6a8a"/>
  <polygon points="88,126 100,140 112,126" fill="#5a8aaa"/>
  <polygon points="88,126 100,140 94,126" fill="#4a7a9a"/>
  <!-- Комір уніформи -->
  <path d="M86,126 L100,136 L114,126" fill="none" stroke="#4a7a9a" stroke-width="0.8"/>
  <!-- Бейджик -->
  <rect x="88" y="150" width="24" height="14" rx="2" fill="#f0e8e0"/>
  <text x="100" y="158" font-family="sans-serif" font-size="5" fill="#3a6a8a" text-anchor="middle">ШЕЛЛІ</text>
  <rect x="88" y="150" width="24" height="14" rx="2" fill="none" stroke="#d0c8c0" stroke-width="0.5"/>
  <!-- Кишеня -->
  <rect x="80" y="165" width="16" height="14" rx="1" fill="#3a6a8a" stroke="#4a7a9a" stroke-width="0.5"/>
  <line x1="82" y1="170" x2="94" y2="170" stroke="#4a7a9a" stroke-width="0.3"/>
  <!-- Ремінь -->
  <rect x="66" y="274" width="68" height="6" fill="#1a1a2e"/>
  <rect x="94" y="273" width="12" height="8" rx="1" fill="#c8a040"/>
  <!-- Спідниця / штани -->
  <rect x="68" y="280" width="64" height="108" rx="2" fill="#2a4a6a"/>
  <line x1="100" y1="280" x2="100" y2="388" stroke="#1a3a5a" stroke-width="0.5"/>
  <line x1="68" y1="340" x2="132" y2="340" stroke="#1a3a5a" stroke-width="0.3"/>
  <!-- Туфлі -->
  <rect x="70" y="388" width="26" height="14" rx="4" fill="#1a1a2e"/>
  <rect x="104" y="388" width="26" height="14" rx="4" fill="#1a1a2e"/>
  <rect x="70" y="396" width="26" height="4" rx="2" fill="#0e0e1e"/>
  <rect x="104" y="396" width="26" height="4" rx="2" fill="#0e0e1e"/>
  <!-- Невеликий підбор -->
  <rect x="70" y="400" width="26" height="3" rx="1" fill="#0e0e1e"/>
  <rect x="104" y="400" width="26" height="3" rx="1" fill="#0e0e1e"/>
  <!-- Руки (схрещені на грудях) -->
  <path d="M50,148 Q56,200 70,210 Q78,214 85,200 Q88,190 82,170 Q78,156 70,148" fill="#c8a890"/>
  <path d="M150,148 Q144,200 130,210 Q122,214 115,200 Q112,190 118,170 Q122,156 130,148" fill="#c8a890"/>
  <!-- Рукава -->
  <rect x="48" y="148" width="22" height="16" rx="3" fill="#3a6a8a"/>
  <rect x="130" y="148" width="22" height="16" rx="3" fill="#3a6a8a"/>
  <!-- Кисті (стиснуті) -->
  <ellipse cx="68" cy="205" rx="8" ry="7" fill="#c8a890"/>
  <ellipse cx="132" cy="205" rx="8" ry="7" fill="#c8a890"/>
  <path d="M62,202 Q58,200 60,196" fill="none" stroke="#c8a890" stroke-width="3" stroke-linecap="round"/>
  <path d="M66,201 Q64,198 66,194" fill="none" stroke="#c8a890" stroke-width="3" stroke-linecap="round"/>
  <path d="M126,202 Q130,200 128,196" fill="none" stroke="#c8a890" stroke-width="3" stroke-linecap="round"/>
  <path d="M130,201 Q132,198 130,194" fill="none" stroke="#c8a890" stroke-width="3" stroke-linecap="round"/>
</svg>